<svg xmlns="http://www.w3.org/2000/svg" xmlns:xlink="http://www.w3.org/1999/xlink" viewBox="0 0 407.49 407.49"><defs><style>.cls-1,.cls-2{fill:none;}.cls-1{stroke-miterlimit:10;stroke-width:6px;stroke:url(#linear-gradient);}</style><linearGradient id="linear-gradient" x1="11.71" y1="203.74" x2="395.77" y2="203.74" gradientUnits="userSpaceOnUse"><stop offset="0" stop-color="#4f1249"/><stop offset="1" stop-color="#231f20"/></linearGradient></defs><g id="Layer_2" data-name="Layer 2"><g id="Layer_1-2" data-name="Layer 1"><path class="cls-1" d="M363.28,98a29.5,29.5,0,1,1-29.5,29.49A29.49,29.49,0,0,1,363.28,98ZM270.84,211.81l71.06-64M137.15,166.13A22.14,22.14,0,1,0,159.29,144,22.14,22.14,0,0,0,137.15,166.13Zm39.31,14,40.59,33M14.71,287.38a22.14,22.14,0,1,0,22.14-22.14A22.14,22.14,0,0,0,14.71,287.38ZM143.56,181.71l-91,90.09m156.51-36.28a35.43,35.43,0,1,0,35.43-35.43A35.42,35.42,0,0,0,209.09,235.52Z"/><rect class="cls-2" width="407.49" height="407.49"/></g></g></svg>